<svg xmlns="http://www.w3.org/2000/svg" viewBox="0 0 48 48">
    <defs>
        <style>.cls-1{fill:#e5e5e5;}.cls-2{fill:#424242;}</style>
    </defs>
    <title>Bot Assistant</title>
    <g id="Bot_Assistant" data-name="Bot Assistant">
        <path class="cls-1" d="M24,41a1,1,0,0,0,0,2A1,1,0,0,0,24,41Z" />
        <path class="cls-1"
            d="M33.83,36H14.17a2,2,0,0,0-2,2.17L13,48H35l.82-9.83A2,2,0,0,0,33.83,36ZM24,45a3,3,0,1,1,3-3A3,3,0,0,1,24,45Z" />
        <path class="cls-1" d="M11,15V25H9a2,2,0,0,1-2-2V17a2,2,0,0,1,2-2Z" />
        <path class="cls-1" d="M41,17v6a2,2,0,0,1-2,2H37V15h2A2,2,0,0,1,41,17Z" />
        <path class="cls-1"
            d="M32,14H16a2,2,0,0,0-2,2v8a2,2,0,0,0,2,2H32a2,2,0,0,0,2-2V16A2,2,0,0,0,32,14ZM19,20a2,2,0,1,1,2-2A2,2,0,0,1,19,20Zm7,4H22a1,1,0,0,1,0-2h4A1,1,0,0,1,26,24Zm3-4a2,2,0,1,1,2-2A2,2,0,0,1,29,20Z" />
        <path class="cls-2"
            d="M42.19,35.47a5,5,0,0,0-3.47-4.41l-4.16-1.33A5,5,0,0,0,38,25V15a5,5,0,0,0-4-4.9V5.22a3,3,0,1,0-4.4-.44L28.23,10H19.77L18.4,4.78a3,3,0,1,0-4.4.44V10.1A5,5,0,0,0,10,15V25a5,5,0,0,0,3.44,4.73L9.27,31.06a5,5,0,0,0-3.46,4.41L5,46.93A1,1,0,0,0,6,48h5l-.16-2H7.07l.74-10.39A3,3,0,0,1,9.88,33l8.41-2.69.74,3A1,1,0,0,0,20,34h8a1,1,0,0,0,1-.76l.74-3L38.11,33a3,3,0,0,1,2.08,2.64L40.93,46H37.17L37,48c5.46,0,5.31.11,5.72-.32S43.07,47.89,42.19,35.47ZM32,2a1,1,0,0,1,0,2A1,1,0,0,1,32,2Zm-.64,3.93A3.39,3.39,0,0,0,32,6v4H30.3ZM16,2a1,1,0,0,1,0,2A1,1,0,0,1,16,2Zm1.7,8H16V6a3.39,3.39,0,0,0,.64-.07Zm9.52,22H20.78l-.5-2h7.44ZM15,28a3,3,0,0,1-3-3V15a3,3,0,0,1,3-3H33a3,3,0,0,1,3,3V25a3,3,0,0,1-3,3Z" />
    </g>
</svg>