<?xml version="1.0" encoding="iso-8859-1"?>
<!-- Uploaded to: SVG Repo, www.svgrepo.com, Generator: SVG Repo Mixer Tools -->
<svg height="800px" width="800px" version="1.1" id="Layer_1" xmlns="http://www.w3.org/2000/svg" xmlns:xlink="http://www.w3.org/1999/xlink" 
	 viewBox="0 0 512.001 512.001" xml:space="preserve">
<polygon style="fill:#CFF09E;" points="146.858,390.654 451.109,390.654 479.051,232.428 118.916,232.428 "/>
<path style="fill:#507C5C;" d="M508.441,122.223c-2.891-3.446-7.159-5.436-11.657-5.436h-70.498
	c-8.404,0-15.215,6.812-15.215,15.215c0,8.403,6.812,15.215,15.215,15.215h52.361l-12.361,69.996H131.681l-12.361-69.996h222.774
	c8.404,0,15.215-6.812,15.215-15.215s-6.812-15.215-15.215-15.215H113.481L94.327,15.065C92.973,7.874,86.692,2.666,79.374,2.666
	H15.215C6.812,2.666,0,9.478,0,17.881s6.812,15.215,15.215,15.215h51.541l65.118,360.205c1.284,7.27,7.602,12.569,14.984,12.569
	h66.943c20.135,0,36.517,16.382,36.517,36.517s-16.382,36.517-36.517,36.517s-36.517-16.382-36.517-36.517
	c0-8.404-6.812-15.215-15.215-15.215c-8.403,0-15.215,6.812-15.215,15.215c0,36.916,30.032,66.948,66.948,66.948
	s66.948-30.032,66.948-66.948c0-13.466-4.011-26.006-10.879-36.517h114.791c20.135,0,36.517,16.382,36.517,36.517
	s-16.382,36.517-36.517,36.517s-36.517-16.382-36.517-36.517c0-8.404-6.812-15.215-15.215-15.215s-15.215,6.812-15.215,15.215
	c0,36.916,30.032,66.948,66.948,66.948s66.948-30.032,66.948-66.948c0-13.466-4.011-26.006-10.879-36.517h10.38
	c7.383,0,13.7-5.3,14.984-12.569l27.942-158.227l17.734-100.427C512.551,130.218,511.332,125.669,508.441,122.223z M438.345,375.44
	H159.622l-22.568-127.796h323.859L438.345,375.44z"/>
</svg>