<?xml version="1.0" encoding="iso-8859-1"?>
<!DOCTYPE svg PUBLIC "-//W3C//DTD SVG 1.1//EN" "http://www.w3.org/Graphics/SVG/1.1/DTD/svg11.dtd">
<svg version="1.1" id="Capa_1" xmlns="http://www.w3.org/2000/svg"
	xmlns:xlink="http://www.w3.org/1999/xlink"
	width="800px" height="800px" viewBox="0 0 362.577 362.577"
	xml:space="preserve">
	<g>
		<g>
			<g id="Layer_5_12_">
				<g>
					<path d="M149.656,286.228c-0.6-0.17-1.569-0.473-2.158-0.672c0,0-60.259-20.44-82.351-58.289
					c-10.888-18.65-14.907-55.923-14.907-55.923c-0.066-0.618-0.617-1.01-1.223-0.87c0,0-47.433,10.906-48.814,13.458
					c-2.135,3.945,12.221,70.301,60.174,96.25c30.606,16.562,89.717,6.672,89.717,6.672c0.613-0.104,0.626-0.325,0.027-0.496
					L149.656,286.228z" fill="#ee87be"/>
					<path d="M212.689,286.292c0.728-0.205,2.284-0.701,3.463-1.103c0,0,59.188-20.077,81.278-57.926
					c10.889-18.649,14.785-54.798,14.785-54.798c0.133-1.236,1.232-2.02,2.445-1.741c0,0,46.332,10.653,47.713,13.207
					c2.137,3.944-12.221,70.301-60.174,96.248c-30.605,16.563-88.604,6.858-88.604,6.858
					C212.374,286.835,211.964,286.499,212.689,286.292z" fill="#ee87be"/>
					<path d="M139.27,255.243c-13.17-17.545-28.872-45.248-28.872-77.598c0-22.336,15.872-57.451,15.872-57.451
					c0.26-0.574-0.018-1.206-0.615-1.405c0,0-46.897-15.586-49.44-14.102c-3.926,2.293-26.431,67.28,1.414,114.983
					c18.43,31.573,76.672,53.765,76.672,53.765c0.589,0.226,0.716,0.035,0.281-0.422C154.582,273.013,145.16,263.09,139.27,255.243z
					" fill="#fd6da5"/>
					<path d="M286.364,104.687c-2.479-1.444-47.502,13.153-47.502,13.153c-0.602,0.194-0.873,0.821-0.607,1.393
					c0,0,16.545,35.67,16.545,58.412c0,32.271-15.846,60.024-29.139,77.625c-5.48,7.254-14.379,16.766-14.379,16.766
					c-0.432,0.46-0.307,0.642,0.277,0.404c0,0,55.809-22.647,73.391-52.771C312.796,171.968,290.29,106.98,286.364,104.687z" fill="#fd6da5"/>
					<path d="M241.905,177.14c0,57.673-54.942,104.427-59.249,104.427c-4.994,0-59.247-46.754-59.247-104.427
					c0-57.671,53.905-104.426,59.247-104.426C187.401,72.714,241.905,119.469,241.905,177.14z" fill="#ff4170"/>
				</g>
			</g>
		</g>
	</g>
</svg>